<svg width="394" height="90" viewBox="0 0 394 90" fill="none" xmlns="http://www.w3.org/2000/svg">
<g filter="url(#filter0_d_0_187)">
<rect x="20" width="354" height="50" rx="11" fill="#382AE1"/>
</g>
<path d="M122.87 30V19.5H128.405C128.915 19.5 129.39 19.585 129.83 19.755C130.27 19.925 130.645 20.165 130.955 20.475C131.275 20.775 131.525 21.135 131.705 21.555C131.885 21.965 131.975 22.415 131.975 22.905C131.975 23.375 131.885 23.815 131.705 24.225C131.525 24.635 131.275 24.99 130.955 25.29C130.635 25.58 130.255 25.81 129.815 25.98C129.385 26.15 128.915 26.235 128.405 26.235H125.45V30H122.87ZM128.105 21.705H125.45V24.105H128.105C128.475 24.105 128.775 23.995 129.005 23.775C129.245 23.555 129.365 23.27 129.365 22.92C129.365 22.56 129.245 22.27 129.005 22.05C128.775 21.82 128.475 21.705 128.105 21.705ZM133.18 30V22.065H135.61V22.86C135.87 22.55 136.175 22.31 136.525 22.14C136.875 21.97 137.265 21.885 137.695 21.885C137.925 21.895 138.11 21.915 138.25 21.945C138.39 21.965 138.51 22.01 138.61 22.08V24.195C138.45 24.125 138.27 24.07 138.07 24.03C137.87 23.98 137.665 23.955 137.455 23.955C137.075 23.955 136.72 24.045 136.39 24.225C136.07 24.405 135.81 24.65 135.61 24.96V30H133.18ZM139.001 26.04C139.001 25.47 139.111 24.935 139.331 24.435C139.561 23.925 139.866 23.485 140.246 23.115C140.636 22.745 141.091 22.455 141.611 22.245C142.141 22.025 142.706 21.915 143.306 21.915C143.906 21.915 144.466 22.025 144.986 22.245C145.516 22.455 145.971 22.745 146.351 23.115C146.741 23.485 147.046 23.925 147.266 24.435C147.496 24.935 147.611 25.47 147.611 26.04C147.611 26.61 147.496 27.15 147.266 27.66C147.046 28.16 146.741 28.595 146.351 28.965C145.971 29.335 145.516 29.625 144.986 29.835C144.466 30.045 143.906 30.15 143.306 30.15C142.706 30.15 142.141 30.045 141.611 29.835C141.091 29.625 140.636 29.335 140.246 28.965C139.866 28.595 139.561 28.16 139.331 27.66C139.111 27.15 139.001 26.61 139.001 26.04ZM143.306 28.05C143.846 28.05 144.301 27.855 144.671 27.465C145.051 27.075 145.241 26.6 145.241 26.04C145.241 25.47 145.051 24.99 144.671 24.6C144.301 24.21 143.846 24.015 143.306 24.015C142.766 24.015 142.306 24.21 141.926 24.6C141.556 24.99 141.371 25.47 141.371 26.04C141.371 26.6 141.556 27.075 141.926 27.465C142.306 27.855 142.766 28.05 143.306 28.05ZM152.784 28.05C153.114 28.05 153.419 27.98 153.699 27.84C153.979 27.7 154.249 27.485 154.509 27.195L155.949 28.695C155.549 29.155 155.059 29.515 154.479 29.775C153.899 30.025 153.294 30.15 152.664 30.15C152.074 30.15 151.519 30.045 150.999 29.835C150.489 29.625 150.044 29.335 149.664 28.965C149.294 28.595 148.999 28.16 148.779 27.66C148.569 27.16 148.464 26.62 148.464 26.04C148.464 25.46 148.569 24.92 148.779 24.42C148.999 23.91 149.294 23.475 149.664 23.115C150.044 22.745 150.489 22.455 150.999 22.245C151.519 22.025 152.074 21.915 152.664 21.915C153.314 21.915 153.934 22.045 154.524 22.305C155.114 22.565 155.614 22.925 156.024 23.385L154.539 24.93C154.259 24.62 153.974 24.39 153.684 24.24C153.394 24.09 153.074 24.015 152.724 24.015C152.204 24.015 151.764 24.21 151.404 24.6C151.054 24.99 150.879 25.47 150.879 26.04C150.879 26.61 151.059 27.09 151.419 27.48C151.789 27.86 152.244 28.05 152.784 28.05ZM163.892 28.95C163.392 29.37 162.877 29.675 162.347 29.865C161.827 30.055 161.237 30.15 160.577 30.15C159.977 30.15 159.412 30.045 158.882 29.835C158.352 29.625 157.892 29.335 157.502 28.965C157.122 28.595 156.817 28.16 156.587 27.66C156.367 27.15 156.257 26.61 156.257 26.04C156.257 25.47 156.362 24.935 156.572 24.435C156.792 23.925 157.087 23.485 157.457 23.115C157.827 22.745 158.262 22.455 158.762 22.245C159.272 22.035 159.817 21.93 160.397 21.93C160.977 21.93 161.512 22.04 162.002 22.26C162.492 22.48 162.912 22.78 163.262 23.16C163.622 23.54 163.902 24 164.102 24.54C164.302 25.07 164.402 25.645 164.402 26.265V26.865H158.747C158.907 27.235 159.157 27.54 159.497 27.78C159.837 28.01 160.237 28.125 160.697 28.125C161.027 28.125 161.327 28.075 161.597 27.975C161.867 27.865 162.097 27.715 162.287 27.525L163.892 28.95ZM160.352 23.91C159.952 23.91 159.607 24.02 159.317 24.24C159.027 24.46 158.822 24.77 158.702 25.17H162.017C161.887 24.79 161.672 24.485 161.372 24.255C161.082 24.025 160.742 23.91 160.352 23.91ZM172.886 28.95C172.386 29.37 171.871 29.675 171.341 29.865C170.821 30.055 170.231 30.15 169.571 30.15C168.971 30.15 168.406 30.045 167.876 29.835C167.346 29.625 166.886 29.335 166.496 28.965C166.116 28.595 165.811 28.16 165.581 27.66C165.361 27.15 165.251 26.61 165.251 26.04C165.251 25.47 165.356 24.935 165.566 24.435C165.786 23.925 166.081 23.485 166.451 23.115C166.821 22.745 167.256 22.455 167.756 22.245C168.266 22.035 168.811 21.93 169.391 21.93C169.971 21.93 170.506 22.04 170.996 22.26C171.486 22.48 171.906 22.78 172.256 23.16C172.616 23.54 172.896 24 173.096 24.54C173.296 25.07 173.396 25.645 173.396 26.265V26.865H167.741C167.901 27.235 168.151 27.54 168.491 27.78C168.831 28.01 169.231 28.125 169.691 28.125C170.021 28.125 170.321 28.075 170.591 27.975C170.861 27.865 171.091 27.715 171.281 27.525L172.886 28.95ZM169.346 23.91C168.946 23.91 168.601 24.02 168.311 24.24C168.021 24.46 167.816 24.77 167.696 25.17H171.011C170.881 24.79 170.666 24.485 170.366 24.255C170.076 24.025 169.736 23.91 169.346 23.91ZM180.425 30V29.415C180.115 29.635 179.78 29.805 179.42 29.925C179.06 30.045 178.685 30.105 178.295 30.105C177.735 30.105 177.205 30 176.705 29.79C176.215 29.58 175.785 29.29 175.415 28.92C175.055 28.55 174.77 28.12 174.56 27.63C174.35 27.13 174.245 26.595 174.245 26.025C174.245 25.455 174.35 24.925 174.56 24.435C174.78 23.935 175.075 23.505 175.445 23.145C175.815 22.775 176.25 22.485 176.75 22.275C177.26 22.065 177.8 21.96 178.37 21.96C178.74 21.96 179.095 22.005 179.435 22.095C179.775 22.185 180.095 22.315 180.395 22.485V19.5L182.825 18.975V30H180.425ZM176.63 26.025C176.63 26.595 176.83 27.075 177.23 27.465C177.64 27.845 178.135 28.035 178.715 28.035C179.055 28.035 179.365 27.985 179.645 27.885C179.925 27.775 180.175 27.615 180.395 27.405V24.63C180.185 24.44 179.935 24.29 179.645 24.18C179.355 24.07 179.045 24.015 178.715 24.015C178.125 24.015 177.63 24.21 177.23 24.6C176.83 24.98 176.63 25.455 176.63 26.025ZM188.387 27.585V24.09H186.782V22.065H188.387V20.025L190.817 19.5V22.065H193.037V24.09H190.817V27.105C190.817 27.455 190.892 27.705 191.042 27.855C191.202 27.995 191.477 28.065 191.867 28.065C192.057 28.065 192.237 28.055 192.407 28.035C192.577 28.005 192.762 27.96 192.962 27.9V29.865C192.742 29.935 192.462 29.99 192.122 30.03C191.782 30.08 191.497 30.105 191.267 30.105C190.317 30.105 189.597 29.895 189.107 29.475C188.627 29.045 188.387 28.415 188.387 27.585ZM193.625 26.04C193.625 25.47 193.735 24.935 193.955 24.435C194.185 23.925 194.49 23.485 194.87 23.115C195.26 22.745 195.715 22.455 196.235 22.245C196.765 22.025 197.33 21.915 197.93 21.915C198.53 21.915 199.09 22.025 199.61 22.245C200.14 22.455 200.595 22.745 200.975 23.115C201.365 23.485 201.67 23.925 201.89 24.435C202.12 24.935 202.235 25.47 202.235 26.04C202.235 26.61 202.12 27.15 201.89 27.66C201.67 28.16 201.365 28.595 200.975 28.965C200.595 29.335 200.14 29.625 199.61 29.835C199.09 30.045 198.53 30.15 197.93 30.15C197.33 30.15 196.765 30.045 196.235 29.835C195.715 29.625 195.26 29.335 194.87 28.965C194.49 28.595 194.185 28.16 193.955 27.66C193.735 27.15 193.625 26.61 193.625 26.04ZM197.93 28.05C198.47 28.05 198.925 27.855 199.295 27.465C199.675 27.075 199.865 26.6 199.865 26.04C199.865 25.47 199.675 24.99 199.295 24.6C198.925 24.21 198.47 24.015 197.93 24.015C197.39 24.015 196.93 24.21 196.55 24.6C196.18 24.99 195.995 25.47 195.995 26.04C195.995 26.6 196.18 27.075 196.55 27.465C196.93 27.855 197.39 28.05 197.93 28.05ZM206.425 30V19.5H211.96C212.47 19.5 212.945 19.585 213.385 19.755C213.825 19.925 214.2 20.165 214.51 20.475C214.83 20.775 215.08 21.135 215.26 21.555C215.44 21.965 215.53 22.415 215.53 22.905C215.53 23.375 215.44 23.815 215.26 24.225C215.08 24.635 214.83 24.99 214.51 25.29C214.19 25.58 213.81 25.81 213.37 25.98C212.94 26.15 212.47 26.235 211.96 26.235H209.005V30H206.425ZM211.66 21.705H209.005V24.105H211.66C212.03 24.105 212.33 23.995 212.56 23.775C212.8 23.555 212.92 23.27 212.92 22.92C212.92 22.56 212.8 22.27 212.56 22.05C212.33 21.82 212.03 21.705 211.66 21.705ZM218.976 30.135C218.136 30.135 217.446 29.905 216.906 29.445C216.366 28.985 216.096 28.395 216.096 27.675C216.096 26.925 216.381 26.34 216.951 25.92C217.531 25.5 218.336 25.29 219.366 25.29C219.676 25.29 219.981 25.31 220.281 25.35C220.581 25.39 220.876 25.445 221.166 25.515V25.125C221.166 24.725 221.036 24.43 220.776 24.24C220.526 24.04 220.151 23.94 219.651 23.94C219.341 23.94 218.991 23.99 218.601 24.09C218.211 24.19 217.761 24.35 217.251 24.57L216.381 22.785C217.021 22.495 217.646 22.28 218.256 22.14C218.876 21.99 219.486 21.915 220.086 21.915C221.186 21.915 222.041 22.18 222.651 22.71C223.261 23.23 223.566 23.965 223.566 24.915V30H221.166V29.52C220.846 29.74 220.506 29.9 220.146 30C219.796 30.09 219.406 30.135 218.976 30.135ZM218.406 27.63C218.406 27.88 218.516 28.075 218.736 28.215C218.956 28.355 219.261 28.425 219.651 28.425C219.941 28.425 220.211 28.395 220.461 28.335C220.721 28.275 220.956 28.18 221.166 28.05V27.03C220.936 26.97 220.701 26.925 220.461 26.895C220.221 26.865 219.976 26.85 219.726 26.85C219.306 26.85 218.981 26.92 218.751 27.06C218.521 27.19 218.406 27.38 218.406 27.63ZM227.129 30.12V30.105L224.084 22.065H226.769L228.524 27.06L230.564 22.065H233.189L229.634 30.405C229.194 31.435 228.684 32.165 228.104 32.595C227.524 33.025 226.759 33.24 225.809 33.24C225.619 33.24 225.434 33.23 225.254 33.21C225.074 33.2 224.924 33.18 224.804 33.15V31.08C224.914 31.1 225.024 31.115 225.134 31.125C225.254 31.135 225.394 31.14 225.554 31.14C225.934 31.14 226.259 31.055 226.529 30.885C226.799 30.715 226.999 30.46 227.129 30.12ZM233.902 30V22.065H236.332V22.575C236.612 22.355 236.917 22.19 237.247 22.08C237.587 21.97 237.942 21.915 238.312 21.915C238.802 21.915 239.247 22.015 239.647 22.215C240.057 22.405 240.397 22.67 240.667 23.01C240.987 22.66 241.367 22.39 241.807 22.2C242.247 22.01 242.727 21.915 243.247 21.915C244.147 21.915 244.882 22.215 245.452 22.815C246.032 23.415 246.322 24.18 246.322 25.11V30H243.892V25.44C243.892 25.01 243.772 24.665 243.532 24.405C243.302 24.135 242.992 24 242.602 24C242.332 24 242.087 24.055 241.867 24.165C241.647 24.265 241.457 24.41 241.297 24.6C241.307 24.68 241.312 24.765 241.312 24.855C241.322 24.935 241.327 25.02 241.327 25.11V30H238.897V25.44C238.897 25.01 238.777 24.665 238.537 24.405C238.307 24.135 237.997 24 237.607 24C237.337 24 237.092 24.05 236.872 24.15C236.662 24.24 236.482 24.38 236.332 24.57V30H233.902ZM255.035 28.95C254.535 29.37 254.02 29.675 253.49 29.865C252.97 30.055 252.38 30.15 251.72 30.15C251.12 30.15 250.555 30.045 250.025 29.835C249.495 29.625 249.035 29.335 248.645 28.965C248.265 28.595 247.96 28.16 247.73 27.66C247.51 27.15 247.4 26.61 247.4 26.04C247.4 25.47 247.505 24.935 247.715 24.435C247.935 23.925 248.23 23.485 248.6 23.115C248.97 22.745 249.405 22.455 249.905 22.245C250.415 22.035 250.96 21.93 251.54 21.93C252.12 21.93 252.655 22.04 253.145 22.26C253.635 22.48 254.055 22.78 254.405 23.16C254.765 23.54 255.045 24 255.245 24.54C255.445 25.07 255.545 25.645 255.545 26.265V26.865H249.89C250.05 27.235 250.3 27.54 250.64 27.78C250.98 28.01 251.38 28.125 251.84 28.125C252.17 28.125 252.47 28.075 252.74 27.975C253.01 27.865 253.24 27.715 253.43 27.525L255.035 28.95ZM251.495 23.91C251.095 23.91 250.75 24.02 250.46 24.24C250.17 24.46 249.965 24.77 249.845 25.17H253.16C253.03 24.79 252.815 24.485 252.515 24.255C252.225 24.025 251.885 23.91 251.495 23.91ZM256.681 30V22.065H259.111V22.605C259.401 22.385 259.726 22.215 260.086 22.095C260.456 21.975 260.841 21.915 261.241 21.915C262.171 21.915 262.931 22.215 263.521 22.815C264.111 23.415 264.406 24.18 264.406 25.11V30H261.976V25.44C261.976 25.01 261.841 24.665 261.571 24.405C261.311 24.135 260.966 24 260.536 24C260.226 24 259.951 24.055 259.711 24.165C259.471 24.275 259.271 24.43 259.111 24.63V30H256.681ZM266.683 27.585V24.09H265.078V22.065H266.683V20.025L269.113 19.5V22.065H271.333V24.09H269.113V27.105C269.113 27.455 269.188 27.705 269.338 27.855C269.498 27.995 269.773 28.065 270.163 28.065C270.353 28.065 270.533 28.055 270.703 28.035C270.873 28.005 271.058 27.96 271.258 27.9V29.865C271.038 29.935 270.758 29.99 270.418 30.03C270.078 30.08 269.793 30.105 269.563 30.105C268.613 30.105 267.893 29.895 267.403 29.475C266.923 29.045 266.683 28.415 266.683 27.585Z" fill="white"/>
<defs>
<filter id="filter0_d_0_187" x="0" y="0" width="394" height="90" filterUnits="userSpaceOnUse" color-interpolation-filters="sRGB">
<feFlood flood-opacity="0" result="BackgroundImageFix"/>
<feColorMatrix in="SourceAlpha" type="matrix" values="0 0 0 0 0 0 0 0 0 0 0 0 0 0 0 0 0 0 127 0" result="hardAlpha"/>
<feOffset dy="20"/>
<feGaussianBlur stdDeviation="10"/>
<feColorMatrix type="matrix" values="0 0 0 0 0.219608 0 0 0 0 0.164706 0 0 0 0 0.882353 0 0 0 0.190291 0"/>
<feBlend mode="normal" in2="BackgroundImageFix" result="effect1_dropShadow_0_187"/>
<feBlend mode="normal" in="SourceGraphic" in2="effect1_dropShadow_0_187" result="shape"/>
</filter>
</defs>
</svg>
